#!OML:ASF F:\VICON\USERDATA\INSTALL\Justin_Nancy\Justin_Nancy.ASF
:FULLY-SPECIFIED
:DEGREES
146
root 0.00425215 17.2446 -31.8514 9.23915 2.73238 -0.622719
lowerback 7.55122 0.643252 0.339143
upperback -1.28461 1.03923 2.68215
thorax -5.62559 0.548613 2.47897
lowerneck -5.56512 -3.45614 -10.0307
upperneck 12.0167 -4.47775 6.82098
head 4.89408 -2.24757 3.49299
rclavicle 2.48481e-015 3.97569e-015
rhumerus -34.1738 -6.65975 -80.9934
rradius 32.2783
rwrist 5.99137
rhand -15.3446 8.58253
rfingers 7.12502
rthumb 10.8324 -21.1181
lclavicle 2.48481e-015 3.97569e-015
lhumerus -41.6576 13.8489 79.4897
lradius 33.4853
lwrist -7.76694
lhand -13.7503 24.7359
lfingers 7.12502
lthumb 12.3699 54.3499
rfemur 4.65261 5.29204 28.5545
rtibia 9.38758
rfoot -16.4918 -15.6566
rtoes 3.31339
lfemur -42.406 -1.43255 -16.6741
ltibia 27.7776
lfoot -9.66042 3.18407
ltoes -4.15023
147
root 0.0190508 17.2364 -31.7849 9.69993 1.54812 -0.860579
lowerback 7.44761 1.08597 0.389853
upperback -1.37966 1.63134 2.60536
thorax -5.68741 0.838499 2.29761
lowerneck -5.55018 -3.43625 -9.87146
upperneck 11.5723 -4.45259 6.82095
head 4.74911 -2.22535 3.46754
rclavicle -9.93923e-016 1.35174e-014
rhumerus -33.9542 -6.66239 -81.1688
rradius 32.2627
rwrist 6.09704
rhand -15.4162 8.56148
rfingers 7.12502
rthumb 10.7633 -21.1428
lclavicle -9.93923e-016 1.35174e-014
lhumerus -41.7451 14.0098 79.1396
lradius 33.0175
lwrist -8.06649
lhand -13.4339 23.4565
lfingers 7.12502
lthumb 12.6749 53.0519
rfemur 4.96323 6.3774 28.4531
rtibia 8.22321
rfoot -15.8315 -15.4108
rtoes 4.03415
lfemur -42.9958 -1.23775 -16.0515
ltibia 26.8225
lfoot -9.50425 4.20478
ltoes -3.03231
148
root 0.0188997 17.2103 -31.681 9.02002 2.7324 -0.357363
lowerback 8.04128 0.677251 0.00760338
upperback -1.12705 1.04868 2.54496
thorax -5.74207 0.561058 2.51816
lowerneck -5.78846 -3.39524 -9.96728
upperneck 11.6445 -4.38563 6.96892
head 4.8107 -2.18456 3.53143
rclavicle -5.86415e-015 -2.3059e-014
rhumerus -33.6355 -6.50331 -81.244
rradius 32.3151
rwrist 6.92902
rhand -15.0004 8.02149
rfingers 7.12502
rthumb 11.1643 -21.6615
lclavicle -5.86415e-015 -2.3059e-014
lhumerus -41.9234 14.2102 78.9601
lradius 32.9197
lwrist -8.25301
lhand -12.8417 24.0995
lfingers 7.12502
lthumb 13.2458 53.6586
rfemur 6.7171 4.84186 28.3416
rtibia 7.15156
rfoot -15.6741 -15.403
rtoes 1.82784
lfemur -42.5478 -1.99143 -16.6259
ltibia 25.9638
lfoot -9.67811 3.33833
ltoes -4.7789
149
root 0.0210497 17.1782 -31.5899 8.8235 2.86782 -0.473376
lowerback 8.34177 0.750469 0.00988633
upperback -1.06091 1.14951 2.54544
thorax -5.84778 0.610718 2.50216
lowerneck -5.77864 -3.43981 -9.95411
upperneck 11.5426 -4.46338 7.12293
head 4.78714 -2.21281 3.57248
rclavicle 5.56597e-015 1.35174e-014
rhumerus -33.6056 -6.77241 -81.1699
rradius 32.3633
rwrist 7.15234
rhand -14.4296 7.6459
rfingers 7.12502
rthumb 11.7149 -22.0065
lclavicle 5.56597e-015 1.35174e-014
lhumerus -42.1685 13.7694 79.0299
lradius 33.1021
lwrist -8.13468
lhand -12.6339 24.4053
lfingers 7.12502
lthumb 13.4461 53.9513
rfemur 7.85024 4.50324 28.5819
rtibia 6.00336
rfoot -15.1076 -15.3482
rtoes -0.74405
lfemur -42.5897 -2.23235 -16.351
ltibia 25.1458
lfoot -9.76421 3.35303
ltoes -7.73573
150
root 0.0325523 17.1505 -31.4978 8.87932 2.65475 -0.976196
lowerback 8.2741 0.950262 0.3904
upperback -1.03154 1.4569 2.60754
thorax -5.78436 0.750462 2.31211
lowerneck -5.52265 -3.59458 -9.80292
upperneck 11.2669 -4.70256 7.13292
head 4.67711 -2.32612 3.53761
rclavicle 5.06901e-015 1.66979e-014
rhumerus -33.782 -7.06128 -81.1823
rradius 32.5977
rwrist 6.80522
rhand -14.0276 7.4085
rfingers 7.12502
rthumb 12.1025 -22.2215
lclavicle 5.06901e-015 1.66979e-014
lhumerus -42.4129 13.1068 79.1658
lradius 33.2785
lwrist -7.70484
lhand -12.8827 23.9491
lfingers 7.12502
lthumb 13.2063 53.5108
rfemur 9.11007 4.60778 29.0774
rtibia 4.0366
rfoot -14.1116 -15.1078
rtoes -1.83075
lfemur -42.9135 -2.16444 -15.6662
ltibia 24.4497
lfoot -9.59443 3.59704
ltoes -9.33365
151
root 0.0460122 17.1377 -31.3969 8.90371 2.54725 -1.29029
lowerback 8.14944 1.00175 0.61201
upperback -0.942951 1.54733 2.68559
thorax -5.62043 0.788592 2.2586
lowerneck -5.40421 -3.65932 -9.82638
upperneck 11.1562 -4.7948 7.13763
head 4.63214 -2.37363 3.53831
rclavicle -1.49089e-014 -7.15625e-015
rhumerus -33.6985 -6.85672 -81.3466
rradius 32.5876
rwrist 6.01437
rhand -14.2137 8.57135
rfingers 7.12502
rthumb 11.923 -21.0691
lclavicle -1.49089e-014 -7.15625e-015
lhumerus -42.5851 13.0552 79.1156
lradius 33.3777
lwrist -7.37986
lhand -12.7659 24.1509
lfingers 7.12502
lthumb 13.3189 53.7053
rfemur 10.512 4.58202 29.3357
rtibia 1.91013
rfoot -13.2653 -14.6502
rtoes -1.1075
lfemur -43.096 -2.27021 -15.1666
ltibia 23.8357
lfoot -9.29876 3.88051
ltoes -9.69128
152
root 0.0583973 17.1369 -31.2924 8.90859 2.40124 -1.43453
lowerback 7.93179 1.03932 0.619882
upperback -0.863867 1.59325 2.7274
thorax -5.41674 0.811143 2.29497
lowerneck -4.98362 -3.72108 -9.86889
upperneck 10.7926 -4.89772 7.12834
head 4.46034 -2.43229 3.54164
rclavicle 0 -9.54166e-015
rhumerus -33.6054 -6.61718 -81.4686
rradius 32.4889
rwrist 5.60332
rhand -14.2864 9.09913
rfingers 7.12502
rthumb 11.8529 -20.5454
lclavicle 0 -9.54166e-015
lhumerus -42.6814 13.5956 78.7606
lradius 32.9266
lwrist -7.94626
lhand -12.6406 23.9502
lfingers 7.12502
lthumb 13.4397 53.4966
rfemur 11.8652 4.57074 29.376
rtibia -5.08889e-014
rfoot -12.7796 -14.0339
rtoes 1.58273
lfemur -43.1305 -2.24273 -14.9282
ltibia 23.2378
lfoot -9.25623 3.95784
ltoes -10.585
153
root 0.0713369 17.133 -31.1984 9.05708 1.97389 -1.6406
lowerback 7.76291 1.25769 0.718364
upperback -0.853478 1.88921 2.7184
thorax -5.31762 0.954119 2.19575
lowerneck -4.71002 -3.84489 -9.94995
upperneck 10.4195 -5.07869 7.2197
head 4.32103 -2.52283 3.57617
rclavicle 4.27387e-015 -1.43125e-014
rhumerus -33.5936 -6.98711 -81.3502
rradius 32.7281
rwrist 7.09025
rhand -13.5791 7.62411
rfingers 7.12502
rthumb 12.5349 -21.9799
lclavicle 4.27387e-015 -1.43125e-014
lhumerus -42.6736 13.9125 78.4503
lradius 32.307
lwrist -8.69124
lhand -12.789 23.6485
lfingers 7.12502
lthumb 13.2966 53.2043
rfemur 12.0751 4.86635 29.4452
rtibia -1.27222e-014
rfoot -12.9301 -13.6861
rtoes 2.64153
lfemur -43.2902 -2.14569 -14.5152
ltibia 22.7119
lfoot -9.24254 4.27845
ltoes -10.1633
154
root 0.0856942 17.119 -31.1164 9.556 0.83888 -2.03892
lowerback 7.59557 1.72029 0.827814
upperback -0.938536 2.51321 2.6821
thorax -5.32733 1.25888 2.02255
lowerneck -5.2117 -3.80967 -9.97985
upperneck 10.7841 -5.02903 7.50469
head 4.51893 -2.47704 3.6658
rclavicle 9.93923e-017 6.36111e-015
rhumerus -33.4039 -6.93515 -81.6466
rradius 32.4022
rwrist 6.02495
rhand -15.0298 9.16798
rfingers 7.12502
rthumb 11.136 -20.5165
lclavicle 9.93923e-017 6.36111e-015
lhumerus -42.6353 14.1709 78.1307
lradius 31.9536
lwrist -9.10305
lhand -12.5252 23.4556
lfingers 7.12502
lthumb 13.5508 52.9946
rfemur 11.846 5.93848 29.5806
rtibia -3.49861e-014
rfoot -12.6699 -13.4803
rtoes 1.62945
lfemur -43.785 -1.97177 -13.5447
ltibia 22.2495
lfoot -8.76687 5.19065
ltoes -9.40014
155
root 0.0915019 17.0845 -30.9814 8.82606 1.93692 -1.80582
lowerback 8.0106 1.20553 0.553361
upperback -0.613374 1.80571 2.78595
thorax -5.21083 0.917309 2.36662
lowerneck -5.59191 -3.5554 -10.2848
upperneck 11.0363 -4.66164 7.77341
head 4.63947 -2.28859 3.81992
rclavicle 5.96354e-016 -1.11319e-014
rhumerus -33.0989 -6.28515 -81.9743
rradius 32.5355
rwrist 6.33292
rhand -15.1233 8.28973
rfingers 7.12502
rthumb 11.0458 -21.3996
lclavicle 5.96354e-016 -1.11319e-014
lhumerus -42.8871 14.9408 77.7797
lradius 31.7981
lwrist -9.19995
lhand -12.6513 22.542
lfingers 7.12502
lthumb 13.4293 52.0891
rfemur 13.2067 4.52058 29.595
rtibia 3.49861e-014
rfoot -13.1949 -13.2998
rtoes 1.22964
lfemur -43.2277 -2.43924 -14.0021
ltibia 21.9192
lfoot -8.60629 4.13595
ltoes -10.5677
156
root 0.119868 17.0739 -30.8746 8.83599 1.10458 -1.99325
lowerback 8.0402 1.39782 0.643695
upperback -0.53677 2.06784 2.76716
thorax -5.15362 1.04341 2.2631
lowerneck -5.77429 -3.47158 -10.4366
upperneck 11.1057 -4.53685 7.92931
head 4.68642 -2.2219 3.90041
rclavicle 2.22639e-014 2.14687e-014
rhumerus -33.0225 -5.91249 -82.1893
rradius 32.7846
rwrist 6.87893
rhand -14.6871 6.99564
rfingers 7.12502
rthumb 11.4665 -22.6708
lclavicle 2.22639e-014 2.14687e-014
lhumerus -43.1649 15.378 77.4992
lradius 31.7176
lwrist -9.3172
lhand -12.4209 19.3801
lfingers 7.12502
lthumb 13.6514 48.9124
rfemur 13.5676 5.19608 29.5328
rtibia 6.36111e-014
rfoot -12.9105 -13.0702
rtoes 0.223371
lfemur -43.1506 -2.77969 -13.255
ltibia 21.6737
lfoot -8.43882 5.25687
ltoes -10.7162
157
root 0.135384 17.0576 -30.76 8.65093 0.90623 -1.99522
lowerback 8.33367 1.39624 0.514731
upperback -0.461658 2.05662 2.75556
thorax -5.24451 1.04075 2.31965
lowerneck -5.88294 -3.45279 -10.403
upperneck 11.0516 -4.48798 7.81217
head 4.68065 -2.20053 3.85939
rclavicle -6.06293e-015 -9.54166e-015
rhumerus -33.0843 -5.36484 -82.5332
rradius 33.1464
rwrist 5.93735
rhand -14.6782 6.14781
rfingers 7.12502
rthumb 11.4751 -23.5181
lclavicle -6.06293e-015 -9.54166e-015
lhumerus -43.3995 15.5639 77.2693
lradius 31.5649
lwrist -9.28653
lhand -12.6342 21.4165
lfingers 7.12502
lthumb 13.4458 50.9626
rfemur 14.1964 5.18119 29.4707
rtibia -1.27222e-014
rfoot -12.6318 -12.8531
rtoes -1.05082
lfemur -42.9565 -3.14043 -12.9382
ltibia 21.582
lfoot -8.41165 5.43165
ltoes -9.79867
158
root 0.150078 17.0426 -30.646 8.58964 0.784731 -2.08633
lowerback 8.57939 1.40035 0.529319
upperback -0.411909 2.06596 2.7321
thorax -5.3301 1.04421 2.2811
lowerneck -6.28189 -3.44421 -10.3571
upperneck 11.2012 -4.43843 7.72628
head 4.78658 -2.17194 3.82336
rclavicle 8.64713e-015 2.54444e-014
rhumerus -32.97 -5.3936 -82.6072
rradius 32.8634
rwrist 5.82269
rhand -14.8924 8.16427
rfingers 7.12502
rthumb 11.2685 -21.5131
lclavicle 8.64713e-015 2.54444e-014
lhumerus -43.5277 15.8671 76.9751
lradius 31.2868
lwrist -9.44801
lhand -12.3655 21.3251
lfingers 7.12502
lthumb 13.7048 50.8539
rfemur 14.6734 5.12328 29.51
rtibia 5.40694e-014
rfoot -12.3291 -12.6714
rtoes -2.89402
lfemur -42.8966 -3.36735 -12.6066
ltibia 21.5244
lfoot -8.40478 5.44196
ltoes -9.57759
